<?xml version="1.0" encoding="UTF-8" standalone="no"?>
<!DOCTYPE svg PUBLIC "-//W3C//DTD SVG 1.1//EN"
 "http://www.w3.org/Graphics/SVG/1.1/DTD/svg11.dtd">
<!-- Generated by graphviz version 2.40.1 (20161225.0304)
 -->
<!-- Title: dependency&#45;cruiser output Pages: 1 -->
<svg width="250pt" height="279pt"
 viewBox="0.00 0.00 249.52 279.00" xmlns="http://www.w3.org/2000/svg" xmlns:xlink="http://www.w3.org/1999/xlink">
<g id="graph0" class="graph" transform="scale(1 1) rotate(0) translate(4 275)">
<title>dependency&#45;cruiser output</title>
<polygon fill="#ffffff" stroke="transparent" points="-4,4 -4,-275 245.5244,-275 245.5244,4 -4,4"/>
<g id="clust1" class="cluster">
<title>cluster_src</title>
<path fill="#ffffff" stroke="#000000" stroke-width="2" d="M20,-8C20,-8 221.5244,-8 221.5244,-8 227.5244,-8 233.5244,-14 233.5244,-20 233.5244,-20 233.5244,-251 233.5244,-251 233.5244,-257 227.5244,-263 221.5244,-263 221.5244,-263 20,-263 20,-263 14,-263 8,-257 8,-251 8,-251 8,-20 8,-20 8,-14 14,-8 20,-8"/>
<text text-anchor="middle" x="120.7622" y="-251.8" font-family="Helvetica,sans-Serif" font-weight="bold" font-size="9.00" fill="#000000">src</text>
</g>
<g id="clust2" class="cluster">
<title>cluster_src/routes</title>
<path fill="#ffffff" stroke="#000000" stroke-width="2" d="M28,-71C28,-71 84.5244,-71 84.5244,-71 90.5244,-71 96.5244,-77 96.5244,-83 96.5244,-83 96.5244,-226 96.5244,-226 96.5244,-232 90.5244,-238 84.5244,-238 84.5244,-238 28,-238 28,-238 22,-238 16,-232 16,-226 16,-226 16,-83 16,-83 16,-77 22,-71 28,-71"/>
<text text-anchor="middle" x="56.2622" y="-226.8" font-family="Helvetica,sans-Serif" font-weight="bold" font-size="9.00" fill="#000000">routes</text>
</g>
<!-- src/config.ts -->
<g id="node1" class="node">
<title>src/config.ts</title>
<g id="a_node1"><a xlink:href="src/config.ts" xlink:title="config.ts">
<path fill="#ddfeff" stroke="#000000" d="M152.8577,-154.5C152.8577,-154.5 110.1911,-154.5 110.1911,-154.5 107.3577,-154.5 104.5244,-151.6667 104.5244,-148.8333 104.5244,-148.8333 104.5244,-143.1667 104.5244,-143.1667 104.5244,-140.3333 107.3577,-137.5 110.1911,-137.5 110.1911,-137.5 152.8577,-137.5 152.8577,-137.5 155.6911,-137.5 158.5244,-140.3333 158.5244,-143.1667 158.5244,-143.1667 158.5244,-148.8333 158.5244,-148.8333 158.5244,-151.6667 155.6911,-154.5 152.8577,-154.5"/>
<text text-anchor="middle" x="131.5244" y="-143.3" font-family="Helvetica,sans-Serif" font-size="9.00" fill="#000000">config.ts</text>
</a>
</g>
</g>
<!-- src/utility.ts -->
<g id="node2" class="node">
<title>src/utility.ts</title>
<g id="a_node2"><a xlink:href="src/utility.ts" xlink:title="utility.ts">
<path fill="#ddfeff" stroke="#000000" d="M219.8577,-154.5C219.8577,-154.5 177.1911,-154.5 177.1911,-154.5 174.3577,-154.5 171.5244,-151.6667 171.5244,-148.8333 171.5244,-148.8333 171.5244,-143.1667 171.5244,-143.1667 171.5244,-140.3333 174.3577,-137.5 177.1911,-137.5 177.1911,-137.5 219.8577,-137.5 219.8577,-137.5 222.6911,-137.5 225.5244,-140.3333 225.5244,-143.1667 225.5244,-143.1667 225.5244,-148.8333 225.5244,-148.8333 225.5244,-151.6667 222.6911,-154.5 219.8577,-154.5"/>
<text text-anchor="middle" x="198.5244" y="-143.3" font-family="Helvetica,sans-Serif" font-size="9.00" fill="#000000">utility.ts</text>
</a>
</g>
</g>
<!-- src/config.ts&#45;&gt;src/utility.ts -->
<g id="edge1" class="edge">
<title>src/config.ts&#45;&gt;src/utility.ts</title>
<path fill="none" stroke="#000000" stroke-width="2" stroke-opacity="0.200000" d="M158.7759,-146C160.8772,-146 163.0125,-146 165.1471,-146"/>
<polygon fill="#000000" fill-opacity="0.200000" stroke="#000000" stroke-width="2" stroke-opacity="0.200000" points="165.5144,-148.1001 171.5143,-146 165.5143,-143.9001 165.5144,-148.1001"/>
</g>
<!-- src/decs.d.ts -->
<g id="node3" class="node">
<title>src/decs.d.ts</title>
<g id="a_node3"><a xlink:href="src/decs.d.ts" xlink:title="decs.d.ts">
<path fill="#ccffcc" stroke="#000000" d="M77.5955,-62.5C77.5955,-62.5 34.9289,-62.5 34.9289,-62.5 32.0955,-62.5 29.2622,-59.6667 29.2622,-56.8333 29.2622,-56.8333 29.2622,-51.1667 29.2622,-51.1667 29.2622,-48.3333 32.0955,-45.5 34.9289,-45.5 34.9289,-45.5 77.5955,-45.5 77.5955,-45.5 80.4289,-45.5 83.2622,-48.3333 83.2622,-51.1667 83.2622,-51.1667 83.2622,-56.8333 83.2622,-56.8333 83.2622,-59.6667 80.4289,-62.5 77.5955,-62.5"/>
<text text-anchor="middle" x="56.2622" y="-51.3" font-family="Helvetica,sans-Serif" font-size="9.00" fill="#000000">decs.d.ts</text>
</a>
</g>
</g>
<!-- src/main.ts -->
<g id="node4" class="node">
<title>src/main.ts</title>
<g id="a_node4"><a xlink:href="src/main.ts" xlink:title="main.ts">
<path fill="#ddfeff" stroke="#000000" d="M77.5955,-33.5C77.5955,-33.5 34.9289,-33.5 34.9289,-33.5 32.0955,-33.5 29.2622,-30.6667 29.2622,-27.8333 29.2622,-27.8333 29.2622,-22.1667 29.2622,-22.1667 29.2622,-19.3333 32.0955,-16.5 34.9289,-16.5 34.9289,-16.5 77.5955,-16.5 77.5955,-16.5 80.4289,-16.5 83.2622,-19.3333 83.2622,-22.1667 83.2622,-22.1667 83.2622,-27.8333 83.2622,-27.8333 83.2622,-30.6667 80.4289,-33.5 77.5955,-33.5"/>
<text text-anchor="middle" x="56.2622" y="-22.3" font-family="Helvetica,sans-Serif" font-size="9.00" fill="#000000">main.ts</text>
</a>
</g>
</g>
<!-- src/main.ts&#45;&gt;src/config.ts -->
<g id="edge2" class="edge">
<title>src/main.ts&#45;&gt;src/config.ts</title>
<path fill="none" stroke="#000000" stroke-width="2" stroke-opacity="0.200000" d="M83.4863,-30.6694C88.4467,-32.8416 93.1206,-35.8456 96.5244,-40 110.7872,-57.4081 97.7887,-68.5268 104.5244,-90 109.2009,-104.9087 117.2224,-120.8636 123.3104,-131.914"/>
<polygon fill="#000000" fill-opacity="0.200000" stroke="#000000" stroke-width="2" stroke-opacity="0.200000" points="121.519,-133.0128 126.2898,-137.214 125.1802,-130.9547 121.519,-133.0128"/>
</g>
<!-- src/main.ts&#45;&gt;src/utility.ts -->
<g id="edge4" class="edge">
<title>src/main.ts&#45;&gt;src/utility.ts</title>
<path fill="none" stroke="#000000" stroke-width="2" stroke-opacity="0.200000" d="M83.4976,-33.2371C88.0206,-35.1344 92.5328,-37.3813 96.5244,-40 136.2599,-66.0691 172.1219,-110.2459 188.7469,-132.4321"/>
<polygon fill="#000000" fill-opacity="0.200000" stroke="#000000" stroke-width="2" stroke-opacity="0.200000" points="187.1094,-133.7496 192.3666,-137.3234 190.4855,-131.2512 187.1094,-133.7496"/>
</g>
<!-- src/users.ts -->
<g id="node5" class="node">
<title>src/users.ts</title>
<g id="a_node5"><a xlink:href="src/users.ts" xlink:title="users.ts">
<path fill="#ddfeff" stroke="#000000" d="M152.8577,-33.5C152.8577,-33.5 110.1911,-33.5 110.1911,-33.5 107.3577,-33.5 104.5244,-30.6667 104.5244,-27.8333 104.5244,-27.8333 104.5244,-22.1667 104.5244,-22.1667 104.5244,-19.3333 107.3577,-16.5 110.1911,-16.5 110.1911,-16.5 152.8577,-16.5 152.8577,-16.5 155.6911,-16.5 158.5244,-19.3333 158.5244,-22.1667 158.5244,-22.1667 158.5244,-27.8333 158.5244,-27.8333 158.5244,-30.6667 155.6911,-33.5 152.8577,-33.5"/>
<text text-anchor="middle" x="131.5244" y="-22.3" font-family="Helvetica,sans-Serif" font-size="9.00" fill="#000000">users.ts</text>
</a>
</g>
</g>
<!-- src/main.ts&#45;&gt;src/users.ts -->
<g id="edge3" class="edge">
<title>src/main.ts&#45;&gt;src/users.ts</title>
<path fill="none" stroke="#000000" stroke-width="2" stroke-opacity="0.200000" d="M83.4336,-25C88.2297,-25 93.272,-25 98.2135,-25"/>
<polygon fill="#000000" fill-opacity="0.200000" stroke="#000000" stroke-width="2" stroke-opacity="0.200000" points="98.3929,-27.1001 104.3929,-25 98.3929,-22.9001 98.3929,-27.1001"/>
</g>
<!-- src/routes/delete&#45;file.ts -->
<g id="node6" class="node">
<title>src/routes/delete&#45;file.ts</title>
<g id="a_node6"><a xlink:href="src/routes/delete-file.ts" xlink:title="delete&#45;file.ts">
<path fill="#ddfeff" stroke="#000000" d="M82.6217,-125.5C82.6217,-125.5 29.9027,-125.5 29.9027,-125.5 27.0694,-125.5 24.2361,-122.6667 24.2361,-119.8333 24.2361,-119.8333 24.2361,-114.1667 24.2361,-114.1667 24.2361,-111.3333 27.0694,-108.5 29.9027,-108.5 29.9027,-108.5 82.6217,-108.5 82.6217,-108.5 85.455,-108.5 88.2884,-111.3333 88.2884,-114.1667 88.2884,-114.1667 88.2884,-119.8333 88.2884,-119.8333 88.2884,-122.6667 85.455,-125.5 82.6217,-125.5"/>
<text text-anchor="middle" x="56.2622" y="-114.3" font-family="Helvetica,sans-Serif" font-size="9.00" fill="#000000">delete&#45;file.ts</text>
</a>
</g>
</g>
<!-- src/routes/delete&#45;file.ts&#45;&gt;src/config.ts -->
<g id="edge5" class="edge">
<title>src/routes/delete&#45;file.ts&#45;&gt;src/config.ts</title>
<path fill="none" stroke="#000000" stroke-width="2" stroke-opacity="0.200000" d="M79.7169,-125.6307C85.239,-127.6925 91.0969,-129.9038 96.5244,-132 99.2068,-133.036 101.9994,-134.1287 104.7854,-135.2283"/>
<polygon fill="#000000" fill-opacity="0.200000" stroke="#000000" stroke-width="2" stroke-opacity="0.200000" points="104.1058,-137.2178 110.4573,-137.4787 105.6548,-133.3139 104.1058,-137.2178"/>
</g>
<!-- src/routes/echo.ts -->
<g id="node7" class="node">
<title>src/routes/echo.ts</title>
<g id="a_node7"><a xlink:href="src/routes/echo.ts" xlink:title="echo.ts">
<path fill="#ddfeff" stroke="#000000" d="M77.5955,-212.5C77.5955,-212.5 34.9289,-212.5 34.9289,-212.5 32.0955,-212.5 29.2622,-209.6667 29.2622,-206.8333 29.2622,-206.8333 29.2622,-201.1667 29.2622,-201.1667 29.2622,-198.3333 32.0955,-195.5 34.9289,-195.5 34.9289,-195.5 77.5955,-195.5 77.5955,-195.5 80.4289,-195.5 83.2622,-198.3333 83.2622,-201.1667 83.2622,-201.1667 83.2622,-206.8333 83.2622,-206.8333 83.2622,-209.6667 80.4289,-212.5 77.5955,-212.5"/>
<text text-anchor="middle" x="56.2622" y="-201.3" font-family="Helvetica,sans-Serif" font-size="9.00" fill="#000000">echo.ts</text>
</a>
</g>
</g>
<!-- src/routes/echo.ts&#45;&gt;src/config.ts -->
<g id="edge6" class="edge">
<title>src/routes/echo.ts&#45;&gt;src/config.ts</title>
<path fill="none" stroke="#000000" stroke-width="2" stroke-opacity="0.200000" d="M83.2915,-196.9802C87.9338,-195.1239 92.5399,-192.825 96.5244,-190 99.6597,-187.7771 112.1851,-171.6348 121.3596,-159.5419"/>
<polygon fill="#000000" fill-opacity="0.200000" stroke="#000000" stroke-width="2" stroke-opacity="0.200000" points="123.1071,-160.7126 125.0492,-154.6596 119.7563,-158.1803 123.1071,-160.7126"/>
</g>
<!-- src/routes/echo.ts&#45;&gt;src/utility.ts -->
<g id="edge7" class="edge">
<title>src/routes/echo.ts&#45;&gt;src/utility.ts</title>
<path fill="none" stroke="#000000" stroke-width="2" stroke-opacity="0.200000" d="M81.9231,-195.3901C86.7951,-193.6671 91.8344,-191.8242 96.5244,-190 123.4685,-179.52 153.8324,-166.2262 174.372,-157.0076"/>
<polygon fill="#000000" fill-opacity="0.200000" stroke="#000000" stroke-width="2" stroke-opacity="0.200000" points="175.285,-158.8996 179.8937,-154.5212 173.5605,-155.0699 175.285,-158.8996"/>
</g>
<!-- src/routes/get&#45;file.ts -->
<g id="node8" class="node">
<title>src/routes/get&#45;file.ts</title>
<g id="a_node8"><a xlink:href="src/routes/get-file.ts" xlink:title="get&#45;file.ts">
<path fill="#ddfeff" stroke="#000000" d="M77.5955,-154.5C77.5955,-154.5 34.9289,-154.5 34.9289,-154.5 32.0955,-154.5 29.2622,-151.6667 29.2622,-148.8333 29.2622,-148.8333 29.2622,-143.1667 29.2622,-143.1667 29.2622,-140.3333 32.0955,-137.5 34.9289,-137.5 34.9289,-137.5 77.5955,-137.5 77.5955,-137.5 80.4289,-137.5 83.2622,-140.3333 83.2622,-143.1667 83.2622,-143.1667 83.2622,-148.8333 83.2622,-148.8333 83.2622,-151.6667 80.4289,-154.5 77.5955,-154.5"/>
<text text-anchor="middle" x="56.2622" y="-143.3" font-family="Helvetica,sans-Serif" font-size="9.00" fill="#000000">get&#45;file.ts</text>
</a>
</g>
</g>
<!-- src/routes/get&#45;file.ts&#45;&gt;src/config.ts -->
<g id="edge8" class="edge">
<title>src/routes/get&#45;file.ts&#45;&gt;src/config.ts</title>
<path fill="none" stroke="#000000" stroke-width="2" stroke-opacity="0.200000" d="M83.4336,-146C88.2297,-146 93.272,-146 98.2135,-146"/>
<polygon fill="#000000" fill-opacity="0.200000" stroke="#000000" stroke-width="2" stroke-opacity="0.200000" points="98.3929,-148.1001 104.3929,-146 98.3929,-143.9001 98.3929,-148.1001"/>
</g>
<!-- src/routes/post&#45;file.ts -->
<g id="node9" class="node">
<title>src/routes/post&#45;file.ts</title>
<g id="a_node9"><a xlink:href="src/routes/post-file.ts" xlink:title="post&#45;file.ts">
<path fill="#ddfeff" stroke="#000000" d="M79.1097,-183.5C79.1097,-183.5 33.4147,-183.5 33.4147,-183.5 30.5814,-183.5 27.748,-180.6667 27.748,-177.8333 27.748,-177.8333 27.748,-172.1667 27.748,-172.1667 27.748,-169.3333 30.5814,-166.5 33.4147,-166.5 33.4147,-166.5 79.1097,-166.5 79.1097,-166.5 81.943,-166.5 84.7764,-169.3333 84.7764,-172.1667 84.7764,-172.1667 84.7764,-177.8333 84.7764,-177.8333 84.7764,-180.6667 81.943,-183.5 79.1097,-183.5"/>
<text text-anchor="middle" x="56.2622" y="-172.3" font-family="Helvetica,sans-Serif" font-size="9.00" fill="#000000">post&#45;file.ts</text>
</a>
</g>
</g>
<!-- src/routes/post&#45;file.ts&#45;&gt;src/config.ts -->
<g id="edge9" class="edge">
<title>src/routes/post&#45;file.ts&#45;&gt;src/config.ts</title>
<path fill="none" stroke="#000000" stroke-width="2" stroke-opacity="0.200000" d="M81.9197,-166.3811C86.792,-164.659 91.8322,-162.8187 96.5244,-161 99.6835,-159.7755 102.9805,-158.4402 106.2335,-157.0874"/>
<polygon fill="#000000" fill-opacity="0.200000" stroke="#000000" stroke-width="2" stroke-opacity="0.200000" points="107.2903,-158.9208 112.0022,-154.6537 105.6577,-155.0511 107.2903,-158.9208"/>
</g>
<!-- src/routes/status.ts -->
<g id="node10" class="node">
<title>src/routes/status.ts</title>
<g id="a_node10"><a xlink:href="src/routes/status.ts" xlink:title="status.ts">
<path fill="#ccffcc" stroke="#000000" d="M77.5955,-96.5C77.5955,-96.5 34.9289,-96.5 34.9289,-96.5 32.0955,-96.5 29.2622,-93.6667 29.2622,-90.8333 29.2622,-90.8333 29.2622,-85.1667 29.2622,-85.1667 29.2622,-82.3333 32.0955,-79.5 34.9289,-79.5 34.9289,-79.5 77.5955,-79.5 77.5955,-79.5 80.4289,-79.5 83.2622,-82.3333 83.2622,-85.1667 83.2622,-85.1667 83.2622,-90.8333 83.2622,-90.8333 83.2622,-93.6667 80.4289,-96.5 77.5955,-96.5"/>
<text text-anchor="middle" x="56.2622" y="-85.3" font-family="Helvetica,sans-Serif" font-size="9.00" fill="#000000">status.ts</text>
</a>
</g>
</g>
</g>
</svg>
